<svg xmlns="http://www.w3.org/2000/svg" viewBox="0 0 32 32">
  <rect width="32" height="32" rx="7.46" fill="#000000"/>
  <clipPath id="fc"><rect width="32" height="32" rx="7.46"/></clipPath>
  <g clip-path="url(#fc)" transform="translate(0,-3.5)">
    <path d="M38.9971 7.93064C38.8079 11.3419 37.4719 16.4381 34.013 20.7375C30.5114 25.0899 24.8029 28.6381 16.0944 28.6887V28.6895C16.0629 28.6895 16.0315 28.6894 16 28.6893C15.9685 28.6894 15.9371 28.6895 15.9056 28.6895V28.6887C7.19708 28.6381 1.48863 25.0899 -2.01299 20.7375C-5.47193 16.4381 -6.8079 11.3419 -6.99709 7.93064L-3.22552 7.79156C-3.05882 10.7975 -1.85555 15.3209 1.14395 19.0492C4.08813 22.7088 8.72888 25.5866 16 25.6112C23.2711 25.5866 27.9119 22.7088 30.8561 19.0492C33.8555 15.3209 35.0588 10.7975 35.2255 7.79156L38.9971 7.93064Z" fill="white"/>
    <circle cx="16.0466" cy="14.0423" r="4.19825" fill="white"/>
  </g>
</svg>
