<svg width="121" height="39" viewBox="0 0 121 39" fill="none" xmlns="http://www.w3.org/2000/svg">
<g clip-path="url(#clip0_12_38)">
<rect y="3.5" width="32" height="32" rx="7.46356" fill="#010302"/>
<g filter="url(#filter0_i_12_38)">
<path d="M38.9971 7.93064C38.8079 11.3419 37.4719 16.4381 34.013 20.7375C30.5114 25.0899 24.8029 28.6381 16.0944 28.6887V28.6895C16.0629 28.6895 16.0315 28.6894 16 28.6893C15.9685 28.6894 15.9371 28.6895 15.9056 28.6895V28.6887C7.19708 28.6381 1.48863 25.0899 -2.01299 20.7375C-5.47193 16.4381 -6.8079 11.3419 -6.99709 7.93064L-3.22552 7.79156C-3.05882 10.7975 -1.85555 15.3209 1.14395 19.0492C4.08813 22.7088 8.72888 25.5866 16 25.6112C23.2711 25.5866 27.9119 22.7088 30.8561 19.0492C33.8555 15.3209 35.0588 10.7975 35.2255 7.79156L38.9971 7.93064Z" fill="white"/>
</g>
<g filter="url(#filter1_i_12_38)">
<circle cx="16.0466" cy="14.0423" r="4.19825" fill="white"/>
</g>
</g>
<path d="M41.1364 11.7841V7.72727H60.25V11.7841H53.125V31H48.2614V11.7841H41.1364ZM64.9491 31.3295C63.8355 31.3295 62.843 31.1364 61.9718 30.75C61.1006 30.3561 60.4112 29.7765 59.9036 29.0114C59.4036 28.2386 59.1536 27.2765 59.1536 26.125C59.1536 25.1553 59.3317 24.3409 59.6877 23.6818C60.0438 23.0227 60.5286 22.4924 61.1423 22.0909C61.7559 21.6894 62.4529 21.3864 63.2332 21.1818C64.0211 20.9773 64.8468 20.8333 65.7105 20.75C66.7256 20.6439 67.5438 20.5455 68.165 20.4545C68.7862 20.3561 69.237 20.2121 69.5173 20.0227C69.7976 19.8333 69.9377 19.553 69.9377 19.1818V19.1136C69.9377 18.3939 69.7105 17.8371 69.2559 17.4432C68.8089 17.0492 68.1726 16.8523 67.3468 16.8523C66.4756 16.8523 65.7824 17.0455 65.2673 17.4318C64.7521 17.8106 64.4112 18.2879 64.2445 18.8636L59.7673 18.5C59.9945 17.4394 60.4415 16.5227 61.1082 15.75C61.7748 14.9697 62.6347 14.3712 63.6877 13.9545C64.7483 13.5303 65.9756 13.3182 67.3695 13.3182C68.3392 13.3182 69.2673 13.4318 70.1536 13.6591C71.0476 13.8864 71.8392 14.2386 72.5286 14.7159C73.2256 15.1932 73.7748 15.8068 74.1764 16.5568C74.5779 17.2992 74.7786 18.1894 74.7786 19.2273V31H70.1877V28.5795H70.0514C69.7711 29.125 69.3961 29.6061 68.9264 30.0227C68.4567 30.4318 67.8923 30.7538 67.2332 30.9886C66.5741 31.2159 65.8127 31.3295 64.9491 31.3295ZM66.3355 27.9886C67.0476 27.9886 67.6764 27.8485 68.2218 27.5682C68.7673 27.2803 69.1953 26.8939 69.5059 26.4091C69.8165 25.9242 69.9718 25.375 69.9718 24.7614V22.9091C69.8203 23.0076 69.612 23.0985 69.3468 23.1818C69.0892 23.2576 68.7976 23.3295 68.4718 23.3977C68.1461 23.4583 67.8203 23.5152 67.4945 23.5682C67.1688 23.6136 66.8733 23.6553 66.6082 23.6932C66.04 23.7765 65.5438 23.9091 65.1195 24.0909C64.6953 24.2727 64.3658 24.5189 64.1309 24.8295C63.8961 25.1326 63.7786 25.5114 63.7786 25.9659C63.7786 26.625 64.0173 27.1288 64.4945 27.4773C64.9794 27.8182 65.593 27.9886 66.3355 27.9886ZM82.4152 7.72727V31H77.5743V7.72727H82.4152ZM89.7194 25.9773L89.7308 20.1705H90.4353L96.0262 13.5455H101.583L94.0717 22.3182H92.924L89.7194 25.9773ZM85.3331 31V7.72727H90.174V31H85.3331ZM96.2422 31L91.1058 23.3977L94.3331 19.9773L101.913 31H96.2422ZM106.268 37.5455C105.654 37.5455 105.079 37.4962 104.541 37.3977C104.01 37.3068 103.571 37.1894 103.222 37.0455L104.313 33.4318C104.882 33.6061 105.393 33.7008 105.847 33.7159C106.31 33.7311 106.707 33.625 107.041 33.3977C107.382 33.1705 107.658 32.7841 107.87 32.2386L108.154 31.5L101.893 13.5455H106.984L110.597 26.3636H110.779L114.427 13.5455H119.552L112.768 32.8864C112.442 33.8258 111.999 34.6439 111.438 35.3409C110.885 36.0455 110.185 36.5871 109.336 36.9659C108.488 37.3523 107.465 37.5455 106.268 37.5455Z" fill="black"/>
<defs>
<filter id="filter0_i_12_38" x="-6.99709" y="7.79156" width="45.9942" height="21.2711" filterUnits="userSpaceOnUse" color-interpolation-filters="sRGB">
<feFlood flood-opacity="0" result="BackgroundImageFix"/>
<feBlend mode="normal" in="SourceGraphic" in2="BackgroundImageFix" result="shape"/>
<feColorMatrix in="SourceAlpha" type="matrix" values="0 0 0 0 0 0 0 0 0 0 0 0 0 0 0 0 0 0 127 0" result="hardAlpha"/>
<feOffset dy="0.373178"/>
<feGaussianBlur stdDeviation="0.932945"/>
<feComposite in2="hardAlpha" operator="arithmetic" k2="-1" k3="1"/>
<feColorMatrix type="matrix" values="0 0 0 0 0 0 0 0 0 0 0 0 0 0 0 0 0 0 0.45 0"/>
<feBlend mode="normal" in2="shape" result="effect1_innerShadow_12_38"/>
</filter>
<filter id="filter1_i_12_38" x="11.8484" y="9.84406" width="8.3965" height="8.76966" filterUnits="userSpaceOnUse" color-interpolation-filters="sRGB">
<feFlood flood-opacity="0" result="BackgroundImageFix"/>
<feBlend mode="normal" in="SourceGraphic" in2="BackgroundImageFix" result="shape"/>
<feColorMatrix in="SourceAlpha" type="matrix" values="0 0 0 0 0 0 0 0 0 0 0 0 0 0 0 0 0 0 127 0" result="hardAlpha"/>
<feOffset dy="0.373178"/>
<feGaussianBlur stdDeviation="0.932945"/>
<feComposite in2="hardAlpha" operator="arithmetic" k2="-1" k3="1"/>
<feColorMatrix type="matrix" values="0 0 0 0 0 0 0 0 0 0 0 0 0 0 0 0 0 0 0.75 0"/>
<feBlend mode="normal" in2="shape" result="effect1_innerShadow_12_38"/>
</filter>
<clipPath id="clip0_12_38">
<rect y="3.5" width="32" height="32" rx="7.46356" fill="white"/>
</clipPath>
</defs>
</svg>
