<svg width="32" height="32" viewBox="0 0 32 32" fill="none" xmlns="http://www.w3.org/2000/svg">
<g clip-path="url(#clip0_13_6)">
<path d="M11.7748 0.175825C10.0308 0.17723 8.61949 1.59242 8.62054 3.33637C8.61914 5.08033 10.0319 6.49552 11.7758 6.49692H14.9311V3.33778C14.9329 1.59382 13.5201 0.178284 11.7748 0.175825C11.7762 0.175825 11.7762 0.175825 11.7748 0.175825ZM11.7748 8.60582H3.36268C1.61872 8.60723 0.205996 10.0224 0.207401 11.7664C0.204942 13.5103 1.61767 14.9259 3.36163 14.9283H11.7748C13.5187 14.9269 14.9314 13.5117 14.93 11.7678C14.9314 10.0224 13.5187 8.60723 11.7748 8.60582Z" fill="black"/>
<path d="M31.7567 11.7664C31.7581 10.0224 30.3454 8.60723 28.6014 8.60582C26.8575 8.60723 25.4447 10.0224 25.4461 11.7664V14.9283H28.6014C30.3454 14.9269 31.7581 13.5117 31.7567 11.7664ZM23.3436 11.7664V3.33637C23.345 1.59382 21.9333 0.178284 20.1893 0.175825C18.4454 0.17723 17.0327 1.59242 17.0341 3.33637V11.7664C17.0316 13.5103 18.4443 14.9255 20.1883 14.9283C21.9319 14.9269 23.3446 13.5117 23.3436 11.7664Z" fill="black"/>
<path d="M20.1879 31.7883C21.9318 31.7869 23.3446 30.3717 23.3432 28.6278C23.3446 26.8838 21.9318 25.4686 20.1879 25.4672H17.0326V28.6278C17.0312 30.3703 18.4439 31.7859 20.1879 31.7883ZM20.1879 23.3569H28.601C30.345 23.3555 31.7577 21.9403 31.7563 20.1964C31.7587 18.4524 30.346 17.0372 28.6021 17.0344H20.1893C18.4453 17.0358 17.0326 18.451 17.034 20.195C17.0326 21.9403 18.4439 23.3559 20.1879 23.3569Z" fill="black"/>
<path d="M0.207399 20.1964C0.205994 21.9403 1.61872 23.3555 3.36268 23.3569C5.10663 23.3555 6.51936 21.9403 6.51796 20.1964V17.0358H3.36268C1.61872 17.0372 0.205994 18.4524 0.207399 20.1964ZM8.62054 20.1964V28.6264C8.61808 30.3703 10.0308 31.7855 11.7748 31.7883C13.5187 31.7869 14.9314 30.3717 14.93 28.6278V20.1992C14.9325 18.4552 13.5198 17.04 11.7758 17.0372C10.0308 17.0372 8.61948 18.4524 8.62054 20.1964Z" fill="black"/>
</g>
<defs>
<clipPath id="clip0_13_6">
<rect width="32" height="32" fill="white"/>
</clipPath>
</defs>
</svg>
